# File created by Blade
# Date/Time:  Wed Jan 28 16:58:26 2015
#---------------------------------------------------------
:version 1.10
:name HOM
:units
  mass 1.0
  length 1.000000
  angle deg
:documentation
     Acclaim Skeleton File
:root
   axis xyz
   order TX TY TZ RX RY RZ
   position 0.000000 0.000000 0.000000
   orientation 0 0 0
:bonedata
   begin
      id 1
      name Spine_dum
      direction 0.000000 1.000000 0.000000
      length 9.621153
      axis 0.0 0.0 0.0 xyz
   end
   begin
      id 2
      name LeftUpLeg_dum
      direction 1.000000 0.000000 0.000000
      length 2.700595
      axis 0.0 0.0 0.0 xyz
   end
   begin
      id 3
      name RightUpLeg_dum
      direction -1.000000 0.000000 0.000000
      length 2.700595
      axis 0.0 0.0 0.0 xyz
   end
   begin
      id 4
      name Spine
      direction 0.000000 1.000000 0.000000
      length 0.000000
      axis 0.0 0.0 0.0 xyz
      dof rx ry rz
   end
   begin
      id 5
      name Spine_dum1
      direction 0.000000 1.000000 0.000000
      length 12.771951
      axis 0.0 0.0 0.0 xyz
   end
   begin
      id 6
      name Spine_dum2
      direction 0.000000 1.000000 0.000000
      length 7.400569
      axis 0.0 0.0 0.0 xyz
   end
   begin
      id 7
      name Spine_dum3
      direction 0.000000 1.000000 0.000000
      length 7.400569
      axis 0.0 0.0 0.0 xyz
   end
   begin
      id 8
      name Head
      direction 0.000000 1.000000 0.000000
      length 4.527550
      axis 0.0 0.0 0.0 xyz
      dof rx ry rz
   end
   begin
      id 9
      name LeftShoulder
      direction 1.000000 0.000000 0.000000
      length 8.349299
      axis 0.0 0.0 -90.0 xyz
      dof rx ry rz
   end
   begin
      id 10
      name LeftArm
      direction 1.000000 0.000000 0.000000
      length 11.334839
      axis 0.0 0.0 -90.0 xyz
      dof rx ry rz
   end
   begin
      id 11
      name LeftForeArm
      direction 1.000000 0.000000 0.000000
      length 9.694182
      axis 0.0 0.0 -90.0 xyz
      dof ry rz rx
   end
   begin
      id 12
      name LeftHand
      direction 0.000000 0.000000 0.000000
      length 0.000000
      axis 0.0 0.0 -90.0 xyz
      dof rx ry rz
   end
   begin
      id 13
      name LeftHand_dum1
      direction 0.000000 0.000000 0.000000
      length 0.000000
      axis 0.0 0.0 -90.0 xyz
   end
   begin
      id 14
      name LeftHand_dum2
      direction 1.000000 0.000000 0.000000
      length 3.937000
      axis 0.0 0.0 -90.0 xyz
   end
   begin
      id 15
      name LeftHandThumb1
      direction 0.000000 0.000000 1.000000
      length 3.937000
      axis 0.0 0.0 -90.0 xyz
      dof rx rz ry
   end
   begin
      id 16
      name RightShoulder
      direction -1.000000 0.000000 0.000000
      length 8.349299
      axis 0.0 0.0 90.0 xyz
      dof rx ry rz
   end
   begin
      id 17
      name RightArm
      direction -1.000000 0.000000 0.000000
      length 11.334839
      axis 0.0 0.0 90.0 xyz
      dof rx ry rz
   end
   begin
      id 18
      name RightForeArm
      direction -1.000000 0.000000 0.000000
      length 9.694182
      axis 0.0 0.0 90.0 xyz
      dof ry rz rx
   end
   begin
      id 19
      name RightHand
      direction 0.000000 0.000000 0.000000
      length 0.000000
      axis 0.0 0.0 90.0 xyz
      dof rx ry rz
   end
   begin
      id 20
      name RightHand_dum1
      direction 0.000000 0.000000 0.000000
      length 0.000000
      axis 0.0 0.0 90.0 xyz
   end
   begin
      id 21
      name RightHand_dum2
      direction -1.000000 0.000000 0.000000
      length 3.937000
      axis 0.0 0.0 90.0 xyz
   end
   begin
      id 22
      name RightHandThumb1
      direction 0.000000 0.000000 1.000000
      length 3.937000
      axis 0.0 0.0 90.0 xyz
      dof rx rz ry
   end
   begin
      id 23
      name LeftUpLeg
      direction 0.000000 -1.000000 0.000000
      length 16.757176
      axis 0.0 0.0 0.0 xyz
      dof rx ry rz
   end
   begin
      id 24
      name LeftLeg
      direction 0.000000 -1.000000 0.000000
      length 16.759153
      axis 0.0 0.0 0.0 xyz
      dof rx ry rz
   end
   begin
      id 25
      name LeftFoot
      direction 0.000000 -0.258819 0.965926
      length 5.841289
      axis 15.0 0.0 0.0 xyz
      dof rx ry rz
   end
   begin
      id 26
      name LeftToeBase
      direction 0.000000 0.000000 1.000000
      length 2.952750
      axis 0.0 0.0 0.0 xyz
      dof rx ry rz
   end
   begin
      id 27
      name RightUpLeg
      direction 0.000000 -1.000000 0.000000
      length 16.757176
      axis 0.0 0.0 0.0 xyz
      dof rx ry rz
   end
   begin
      id 28
      name RightLeg
      direction 0.000000 -1.000000 0.000000
      length 16.759153
      axis 0.0 0.0 0.0 xyz
      dof rx ry rz
   end
   begin
      id 29
      name RightFoot
      direction 0.000000 -0.258819 0.965926
      length 5.841289
      axis 15.0 0.0 0.0 xyz
      dof rx ry rz
   end
   begin
      id 30
      name RightToeBase
      direction 0.000000 0.000000 1.000000
      length 2.952750
      axis 0.0 0.0 0.0 xyz
      dof rx ry rz
   end
:hierarchy
   begin
      root Spine_dum LeftUpLeg_dum RightUpLeg_dum
      Spine_dum Spine
      LeftUpLeg_dum LeftUpLeg
      RightUpLeg_dum RightUpLeg
      Spine Spine_dum1 Spine_dum2 Spine_dum3
      Spine_dum1 Head
      Spine_dum2 LeftShoulder
      Spine_dum3 RightShoulder
      LeftShoulder LeftArm
      LeftArm LeftForeArm
      LeftForeArm LeftHand
      LeftHand LeftHand_dum1 LeftHand_dum2
      LeftHand_dum1 LeftHandThumb1
      RightShoulder RightArm
      RightArm RightForeArm
      RightForeArm RightHand
      RightHand RightHand_dum1 RightHand_dum2
      RightHand_dum1 RightHandThumb1
      LeftUpLeg LeftLeg
      LeftLeg LeftFoot
      LeftFoot LeftToeBase
      RightUpLeg RightLeg
      RightLeg RightFoot
      RightFoot RightToeBase
   end

# File created by Blade
# Date/Time:  Wed Jan 28 16:58:32 2015
# Frame Rate: 120.000 fps
#------------------------------------------------------
:FULLY-SPECIFIED
:DEGREES
2147
root 10.347277 36.628598 -18.276302 213.980131 23.281573 -152.211127
Spine 22.973540 9.595926 5.899005
Head 33.884972 14.756182 29.920095
LeftShoulder -11.056008 1.098220 30.104617
LeftArm 45.908280 -55.209792 -74.332188
LeftForeArm -29.733572 -0.000000 116.041328
LeftHand -13.696408 -0.000000 35.929332
LeftHandThumb1 -26.253704 0.000000 33.147579
RightShoulder -17.505064 -6.167670 -1.630902
RightArm 22.134214 -27.303848 63.935491
RightForeArm -15.835003 -0.000000 59.237646
RightHand -14.130351 -0.000000 2.422395
RightHandThumb1 -24.326973 -0.000000 -32.862282
LeftUpLeg -26.614006 20.665411 11.397390
LeftLeg 10.320478 -0.000000 -0.000000
LeftFoot -17.452872 25.069821 -9.995966
LeftToeBase 12.702986 -0.000000 -0.000000
RightUpLeg 5.719719 -19.031529 -5.807006
RightLeg 70.242249 -0.000000 -0.000000
RightFoot 12.128969 -12.794610 29.908008
RightToeBase -6.848986 -0.000000 0.000000
2148
root 10.384712 36.641619 -18.261709 213.968367 23.286475 -151.816998
Spine 23.029824 9.670358 6.121253
Head 33.857401 14.618652 30.149337
LeftShoulder -11.129686 1.093026 30.149129
LeftArm 45.553103 -55.156951 -73.906413
LeftForeArm -29.794394 -0.000000 115.882427
LeftHand -13.620133 -0.000000 35.928402
LeftHandThumb1 -26.253704 0.000000 33.147579
RightShoulder -17.541840 -6.232061 -1.584301
RightArm 22.303490 -27.521119 63.698324
RightForeArm -15.922582 -0.000000 59.273655
RightHand -14.122733 -0.000000 2.548488
RightHandThumb1 -24.326973 -0.000000 -32.862282
LeftUpLeg -26.423399 21.055558 11.750358
LeftLeg 10.311207 -0.000000 -0.000000
LeftFoot -17.411107 25.038858 -9.866150
LeftToeBase 12.694789 -0.000000 -0.000000
RightUpLeg 5.941286 -19.921478 -6.159768
RightLeg 70.290650 -0.000000 -0.000000
RightFoot 12.170709 -12.722646 30.205586
RightToeBase -6.760314 -0.000000 0.000000
2149
root 10.426911 36.656278 -18.244886 213.990352 23.202590 -151.476000
Spine 23.017107 9.692547 6.310716
Head 33.722319 14.446857 30.358934
LeftShoulder -11.194319 1.085022 30.196465
LeftArm 45.339618 -55.178611 -73.616289
LeftForeArm -30.134484 -0.000000 115.725020
LeftHand -13.538438 0.000000 35.718153
LeftHandThumb1 -26.253704 0.000000 33.147579
RightShoulder -17.636454 -6.333260 -1.484170
RightArm 22.512474 -27.729217 63.461847
RightForeArm -15.945403 -0.000000 59.334839
RightHand -14.061234 -0.000000 2.798939
RightHandThumb1 -24.326973 -0.000000 -32.862282
LeftUpLeg -26.282681 21.285475 12.127801
LeftLeg 10.267637 -0.000000 -0.000000
LeftFoot -17.398719 25.031969 -9.867236
LeftToeBase 12.712589 -0.000000 -0.000000
RightUpLeg 6.213354 -20.810287 -6.518735
RightLeg 70.336833 -0.000000 -0.000000
RightFoot 12.115702 -12.972712 30.664570
RightToeBase -7.028509 -0.000000 0.000000
2150
root 10.458859 36.671410 -18.226289 214.032661 23.122887 -151.258018
Spine 22.934610 9.694651 6.291279
Head 33.572777 14.335579 30.756303
LeftShoulder -11.266401 0.984234 30.341603
LeftArm 44.947027 -55.179853 -73.115553
LeftForeArm -30.089469 -0.000000 115.566541
LeftHand -13.572410 -0.000000 35.706039
LeftHandThumb1 -26.253704 0.000000 33.147579
RightShoulder -17.665149 -6.338509 -1.325010
RightArm 22.593335 -27.972489 63.253214
RightForeArm -15.998841 -0.000000 59.457666
RightHand -14.067361 -0.000000 2.954759
RightHandThumb1 -24.326973 -0.000000 -32.862282
LeftUpLeg -26.176319 21.354695 12.405890
LeftLeg 10.138139 -0.000000 -0.000000
LeftFoot -17.369227 25.079172 -9.952475
LeftToeBase 12.759220 -0.000000 -0.000000
RightUpLeg 6.496096 -21.681251 -7.042629
RightLeg 70.404201 -0.000000 -0.000000
RightFoot 12.028700 -13.260987 31.276007
RightToeBase -7.125281 -0.000000 0.000000
2151
root 10.483921 36.686197 -18.205480 214.065777 23.035176 -151.095766
Spine 22.882818 9.656583 6.245572
Head 33.347178 14.291271 31.024133
LeftShoulder -11.281466 0.922856 30.440699
LeftArm 44.551070 -55.375058 -72.615153
LeftForeArm -30.202419 0.000000 115.439164
LeftHand -13.563336 -0.000000 35.778352
LeftHandThumb1 -26.253704 0.000000 33.147579
RightShoulder -17.688655 -6.316677 -1.207154
RightArm 22.666714 -28.193109 63.123336
RightForeArm -16.097535 0.000000 59.592121
RightHand -14.151607 -0.000000 3.050312
RightHandThumb1 -24.326973 -0.000000 -32.862282
LeftUpLeg -26.035464 21.236397 12.687437
LeftLeg 9.935522 -0.000000 -0.000000
LeftFoot -17.211869 25.311164 -9.907662
LeftToeBase 12.664248 -0.000000 -0.000000
RightUpLeg 6.838060 -22.468541 -7.651820
RightLeg 70.483136 -0.000000 -0.000000
RightFoot 12.029039 -13.473538 31.699282
RightToeBase -7.142049 -0.000000 0.000000
2152
root 10.531917 36.710371 -18.183965 214.128474 22.817646 -150.851986
Spine 22.801570 9.595763 6.264711
Head 33.114722 14.210271 31.492638
LeftShoulder -11.341775 0.865659 30.552604
LeftArm 44.371911 -55.563037 -72.290060
LeftForeArm -30.699498 -0.000000 115.350937
LeftHand -13.435772 -0.000000 35.463847
LeftHandThumb1 -26.253704 0.000000 33.147579
RightShoulder -17.704578 -6.349778 -0.983445
RightArm 22.754752 -28.362645 62.928456
RightForeArm -16.175726 -0.000000 59.748868
RightHand -13.994176 0.000000 3.268904
RightHandThumb1 -24.326973 -0.000000 -32.862282
LeftUpLeg -25.900545 21.071643 13.149689
LeftLeg 9.738191 -0.000000 -0.000000
LeftFoot -17.177645 25.469476 -10.118678
LeftToeBase 12.772500 -0.000000 -0.000000
RightUpLeg 7.345090 -23.221980 -8.149304
RightLeg 70.445219 -0.000000 -0.000000
RightFoot 12.123389 -13.614294 31.822990
RightToeBase -7.167879 -0.000000 0.000000
2153
root 10.580742 36.732855 -18.155496 214.204015 22.606562 -150.613130
Spine 22.773595 9.537388 6.300969
Head 32.758235 14.242386 31.768442
LeftShoulder -11.401647 0.963928 30.632843
LeftArm 44.388044 -55.853441 -72.124046
LeftForeArm -30.938905 -0.000000 115.241594
LeftHand -13.404357 -0.000000 35.532636
LeftHandThumb1 -26.253704 0.000000 33.147579
RightShoulder -17.761506 -6.288709 -0.867961
RightArm 22.824481 -28.601540 62.836585
RightForeArm -16.220208 -0.000000 59.894696
RightHand -13.871035 -0.000000 3.483710
RightHandThumb1 -24.326973 -0.000000 -32.862282
LeftUpLeg -25.793440 20.884814 13.614725
LeftLeg 9.562953 -0.000000 -0.000000
LeftFoot -17.064541 25.654726 -10.222383
LeftToeBase 12.745710 -0.000000 -0.000000
RightUpLeg 7.914723 -23.848139 -8.691157
RightLeg 70.419031 -0.000000 -0.000000
RightFoot 12.234565 -13.620717 31.913084
RightToeBase -7.061056 -0.000000 0.000000
2154
root 10.621555 36.755882 -18.122473 214.302183 22.431726 -150.355648
Spine 22.770175 9.545045 6.355655
Head 32.338860 14.101348 32.024102
LeftShoulder -11.389896 1.027940 30.699278
LeftArm 44.431975 -56.285864 -72.036585
LeftForeArm -31.351118 0.000000 115.152319
LeftHand -13.305121 -0.000000 35.501416
LeftHandThumb1 -26.253704 0.000000 33.147579
RightShoulder -17.785416 -6.242615 -0.808387
RightArm 22.859993 -28.739731 62.823419
RightForeArm -16.478780 -0.000000 60.038089
RightHand -13.648448 -0.000000 3.882229
RightHandThumb1 -24.326973 -0.000000 -32.862282
LeftUpLeg -25.738378 20.805661 14.031210
LeftLeg 9.431598 -0.000000 -0.000000
LeftFoot -16.993723 25.739622 -10.368925
LeftToeBase 12.779291 -0.000000 -0.000000
RightUpLeg 8.498779 -24.326320 -9.285541
RightLeg 70.401882 -0.000000 -0.000000
RightFoot 12.483312 -13.471600 31.785902
RightToeBase -6.988371 -0.000000 0.000000
2155
root 10.669648 36.780713 -18.086895 214.432562 22.233651 -150.033378
Spine 22.769083 9.569432 6.457237
Head 31.929165 14.141361 32.245236
LeftShoulder -11.448289 1.127570 30.769039
LeftArm 44.606591 -56.638979 -72.043675
LeftForeArm -31.611540 0.000000 115.074675
LeftHand -13.273274 -0.000000 35.609576
LeftHandThumb1 -26.253704 0.000000 33.147579
RightShoulder -17.819854 -6.266043 -0.738241
RightArm 22.993089 -28.873963 62.766328
RightForeArm -16.726578 -0.000000 60.174867
RightHand -13.366437 -0.000000 4.157522
RightHandThumb1 -24.326973 -0.000000 -32.862282
LeftUpLeg -25.699065 20.756079 14.525227
LeftLeg 9.334195 -0.000000 -0.000000
LeftFoot -16.923538 25.814915 -10.473636
LeftToeBase 12.824623 -0.000000 -0.000000
RightUpLeg 9.189873 -24.701237 -9.865945
RightLeg 70.307819 -0.000000 -0.000000
RightFoot 12.761397 -13.308649 31.635751
RightToeBase -7.201402 -0.000000 0.000000
2156
root 10.705372 36.800860 -18.054354 214.570298 22.128060 -149.723710
Spine 22.765081 9.680816 6.497073
Head 31.524110 14.034650 32.474507
LeftShoulder -11.478838 1.143461 30.852927
LeftArm 44.552258 -56.963777 -71.816975
LeftForeArm -31.621655 -0.000000 115.001285
LeftHand -13.246839 0.000000 35.890362
LeftHandThumb1 -26.253704 0.000000 33.147579
RightShoulder -17.863682 -6.340704 -0.662642
RightArm 23.211762 -29.005717 62.646754
RightForeArm -16.842773 -0.000000 60.317846
RightHand -13.243009 0.000000 4.333752
RightHandThumb1 -24.326973 -0.000000 -32.862282
LeftUpLeg -25.652814 20.775775 14.935745
LeftLeg 9.240266 -0.000000 -0.000000
LeftFoot -16.774054 25.906609 -10.467747
LeftToeBase 12.671045 -0.000000 -0.000000
RightUpLeg 9.892210 -24.885444 -10.552337
RightLeg 70.205398 -0.000000 -0.000000
RightFoot 13.058387 -13.093517 31.511068
RightToeBase -7.426144 -0.000000 0.000000
2157
root 10.733476 36.820423 -18.016651 214.774016 22.072198 -149.362107
Spine 22.745884 9.801749 6.612503
Head 31.181024 14.115447 32.559876
LeftShoulder -11.558603 1.183685 30.817891
LeftArm 44.653975 -57.293892 -71.717125
LeftForeArm -31.592237 0.000000 114.915992
LeftHand -13.285917 -0.000000 36.148204
LeftHandThumb1 -26.253704 0.000000 33.147579
RightShoulder -17.863634 -6.237505 -0.769414
RightArm 23.253680 -29.330843 62.649751
RightForeArm -16.586661 -0.000000 60.594600
RightHand -13.741836 -0.000000 4.057051
RightHandThumb1 -24.326973 -0.000000 -32.862282
LeftUpLeg -25.679648 20.941273 15.313376
LeftLeg 9.179667 -0.000000 -0.000000
LeftFoot -16.765542 25.931692 -10.587007
LeftToeBase 12.766788 -0.000000 -0.000000
RightUpLeg 10.597450 -24.967382 -11.279180
RightLeg 70.075987 -0.000000 -0.000000
RightFoot 13.218688 -12.822058 31.299081
RightToeBase -7.468400 -0.000000 0.000000
2158
root 10.757801 36.837168 -17.975230 214.994957 22.001313 -148.999569
Spine 22.727576 9.915957 6.774027
Head 30.772519 14.084497 32.489103
LeftShoulder -11.641905 1.255399 30.739704
LeftArm 44.888258 -57.665288 -71.769169
LeftForeArm -31.748204 -0.000000 114.843117
LeftHand -13.213836 0.000000 36.472938
LeftHandThumb1 -26.253704 0.000000 33.147579
RightShoulder -17.877870 -6.200126 -0.928236
RightArm 23.322314 -29.531013 62.698364
RightForeArm -16.601701 -0.000000 60.808406
RightHand -13.697853 -0.000000 4.060964
RightHandThumb1 -24.326973 -0.000000 -32.862282
LeftUpLeg -25.768288 21.145403 15.671738
LeftLeg 9.192967 -0.000000 -0.000000
LeftFoot -16.647187 25.887094 -10.492056
LeftToeBase 12.680178 -0.000000 -0.000000
RightUpLeg 11.344002 -25.021416 -12.102571
RightLeg 69.922440 -0.000000 -0.000000
RightFoot 13.389294 -12.622465 31.216971
RightToeBase -7.561155 -0.000000 0.000000
2159
root 10.784747 36.855788 -17.929288 215.246892 21.901979 -148.602584
Spine 22.698946 9.982040 6.963787
Head 30.424642 14.206522 32.454170
LeftShoulder -11.800756 1.278795 30.644485
LeftArm 45.288361 -58.043684 -72.034139
LeftForeArm -32.114332 -0.000000 114.776488
LeftHand -13.275441 -0.000000 36.207801
LeftHandThumb1 -26.253704 0.000000 33.147579
RightShoulder -17.853939 -6.243207 -1.077318
RightArm 23.514242 -29.700144 62.662077
RightForeArm -16.612319 -0.000000 61.074357
RightHand -13.811813 -0.000000 4.160395
RightHandThumb1 -24.326973 -0.000000 -32.862282
LeftUpLeg -25.907864 21.418039 16.054508
LeftLeg 9.237740 -0.000000 -0.000000
LeftFoot -16.597503 25.745041 -10.529619
LeftToeBase 12.648425 -0.000000 -0.000000
RightUpLeg 12.102950 -24.978051 -12.874349
RightLeg 69.751472 -0.000000 -0.000000
RightFoot 13.471658 -12.419245 31.320640
RightToeBase -7.426774 -0.000000 0.000000
